<svg width="31" height="31" viewBox="0 0 31 31" fill="none" xmlns="http://www.w3.org/2000/svg">
<g id="devicon:facebook">
<path id="Vector" d="M27.9881 1.47266H3.31074C2.46549 1.47266 1.78027 2.15787 1.78027 3.00312V27.6805C1.78027 28.5257 2.46549 29.2109 3.31074 29.2109H27.9881C28.8333 29.2109 29.5186 28.5257 29.5186 27.6805V3.00312C29.5186 2.15787 28.8333 1.47266 27.9881 1.47266Z" fill="#3D5A98"/>
<path id="Vector_2" d="M20.9174 29.2085V18.4671H24.5221L25.0611 14.2811H20.9174V11.6093C20.9174 10.3975 21.2549 9.57019 22.9916 9.57019H25.2088V5.82019C24.1351 5.7083 23.0562 5.65509 21.9768 5.66082C18.7846 5.66082 16.5861 7.60613 16.5861 11.1944V14.2811H12.9814V18.4671H16.5861V29.2085H20.9174Z" fill="white"/>
</g>
</svg>
