<svg width="24" height="24" viewBox="0 0 24 24" fill="none" xmlns="http://www.w3.org/2000/svg">
<g id="fluent-emoji-high-contrast:label">
<g id="Group">
<path id="Vector" fill-rule="evenodd" clip-rule="evenodd" d="M16.3402 4.28181C16.0918 4.03376 15.7769 3.86289 15.4336 3.78983C15.0902 3.71677 14.7331 3.74463 14.4052 3.87006L14.4007 3.87231L10.6357 5.31981L10.6297 5.32206C10.2479 5.47061 9.90076 5.69602 9.60971 5.98431L1.28472 14.3093C1.11509 14.4777 0.980495 14.6779 0.888717 14.8986C0.796938 15.1193 0.749791 15.3559 0.750001 15.5949C0.75021 15.8339 0.797771 16.0705 0.889936 16.291C0.982101 16.5115 1.11704 16.7115 1.28697 16.8796L7.28472 22.8773C7.45306 23.0469 7.65335 23.1815 7.87401 23.2733C8.09467 23.3651 8.33132 23.4122 8.57031 23.412C8.80929 23.4118 9.04587 23.3643 9.26637 23.2721C9.48687 23.1799 9.68692 23.045 9.85496 22.8751L18.1777 14.5523C18.4702 14.2598 18.693 13.9148 18.8422 13.5263L19.26 12.4411C19.365 12.4351 19.47 12.4246 19.5735 12.4096C19.6039 12.4057 19.6339 12.3997 19.6635 12.3916C20.2227 12.297 20.7547 12.0818 21.2225 11.761C21.6902 11.4402 22.0826 11.0214 22.3722 10.5338C22.6619 10.0461 22.842 9.50127 22.9 8.93704C22.958 8.37281 22.8926 7.80272 22.7081 7.26634C22.5237 6.72995 22.2248 6.24013 21.8321 5.83086C21.4394 5.4216 20.9623 5.1027 20.434 4.8963C19.9057 4.6899 19.3387 4.60095 18.7726 4.63561C18.2065 4.67028 17.6546 4.82774 17.1555 5.09706L16.3402 4.28181ZM18.2962 6.23781L19.8802 7.82181C20.394 8.33481 20.5447 9.09981 20.2897 9.76131L19.8997 10.7753C20.477 10.5444 20.9426 10.0993 21.1991 9.53294C21.4556 8.96662 21.4832 8.32304 21.276 7.73685C21.0689 7.15067 20.6431 6.66731 20.0877 6.38791C19.5323 6.10851 18.8904 6.05473 18.2962 6.23781ZM18.1785 10.8016L18.2707 10.8331L18.8902 9.22281C18.9122 9.16525 18.9173 9.10259 18.9048 9.04224C18.8923 8.9819 18.8628 8.9264 18.8197 8.88231L15.2797 5.34231C15.2355 5.29851 15.1793 5.26864 15.1183 5.25638C15.0573 5.24412 14.994 5.25 14.9362 5.27331H14.9347L11.1772 6.71856C10.9878 6.79165 10.8152 6.90267 10.6702 7.04481L2.34522 15.3698C2.31549 15.3983 2.29175 15.4325 2.2754 15.4704C2.25905 15.5082 2.25041 15.5489 2.24999 15.5901C2.24957 15.6313 2.25738 15.6722 2.27296 15.7104C2.28854 15.7485 2.31157 15.7832 2.34072 15.8123L2.34522 15.8168L8.34521 21.8168C8.37375 21.8465 8.40794 21.8703 8.44577 21.8866C8.4836 21.903 8.52431 21.9116 8.56552 21.912C8.60673 21.9125 8.64761 21.9046 8.68576 21.8891C8.72392 21.8735 8.75858 21.8505 8.78771 21.8213L8.79221 21.8168L17.1172 13.4918C17.2597 13.3493 17.367 13.1843 17.4427 12.9878L17.7322 12.2348C17.5595 12.1755 17.3911 12.1043 17.2282 12.0218C16.5554 11.6801 15.9964 11.1501 15.6195 10.4963C15.2655 10.5558 14.9019 10.5013 14.5809 10.3407C14.26 10.18 13.9985 9.92156 13.834 9.60256C13.6696 9.28355 13.6108 8.92054 13.6662 8.56595C13.7215 8.21135 13.8881 7.88353 14.142 7.62981C14.2992 7.47184 14.4861 7.34649 14.6919 7.26096C14.8977 7.17543 15.1183 7.1314 15.3412 7.1314C15.5641 7.1314 15.7848 7.17543 15.9906 7.26096C16.1964 7.34649 16.3832 7.47184 16.5405 7.62981C17.0775 8.16681 17.1802 8.97006 16.848 9.60906C17.1227 10.162 17.5988 10.5888 18.1785 10.8016ZM15.15 7.90131C14.9694 7.93921 14.8038 8.02916 14.6737 8.16006C14.5441 8.289 14.4549 8.45287 14.4168 8.63167C14.3787 8.81048 14.3935 8.99649 14.4593 9.16704C14.5252 9.33758 14.6392 9.48529 14.7875 9.59214C14.9359 9.699 15.1121 9.76038 15.2947 9.76881C15.0968 9.16704 15.0471 8.52638 15.15 7.90131Z" fill="black"/>
<path id="Vector_2" d="M16.3402 4.28181C16.0918 4.03376 15.7769 3.86289 15.4336 3.78983C15.0902 3.71677 14.7331 3.74463 14.4052 3.87006L14.4007 3.87231L10.6357 5.31981L10.6297 5.32206C10.2479 5.47061 9.90076 5.69602 9.60971 5.98431L1.28472 14.3093C1.11509 14.4777 0.980495 14.6779 0.888717 14.8986C0.796938 15.1193 0.749791 15.3559 0.750001 15.5949C0.75021 15.8339 0.797771 16.0705 0.889936 16.291C0.982101 16.5115 1.11704 16.7115 1.28697 16.8796L7.28472 22.8773C7.45306 23.0469 7.65335 23.1815 7.87401 23.2733C8.09467 23.3651 8.33132 23.4122 8.57031 23.412C8.80929 23.4118 9.04587 23.3643 9.26637 23.2721C9.48687 23.1799 9.68692 23.045 9.85496 22.8751L18.1777 14.5523C18.4702 14.2598 18.693 13.9148 18.8422 13.5263L19.26 12.4411C19.365 12.4351 19.47 12.4246 19.5735 12.4096C19.6039 12.4057 19.6339 12.3997 19.6635 12.3916C20.2227 12.297 20.7547 12.0818 21.2225 11.761C21.6902 11.4402 22.0826 11.0214 22.3722 10.5338C22.6619 10.0461 22.842 9.50127 22.9 8.93704C22.958 8.37281 22.8926 7.80272 22.7081 7.26634C22.5237 6.72995 22.2248 6.24013 21.8321 5.83086C21.4394 5.4216 20.9623 5.1027 20.434 4.8963C19.9057 4.6899 19.3387 4.60095 18.7726 4.63561C18.2065 4.67028 17.6546 4.82774 17.1555 5.09706L16.3402 4.28181ZM18.2962 6.23781C18.892 6.04865 19.5379 6.09862 20.0975 6.37714C20.6571 6.65566 21.0864 7.14091 21.2947 7.73026C21.503 8.31961 21.4739 8.96685 21.2135 9.53513C20.9532 10.1034 20.482 10.5481 19.8997 10.7753L20.2897 9.76131C20.416 9.433 20.4445 9.07515 20.3718 8.73099C20.2992 8.38682 20.1284 8.07105 19.8802 7.82181L18.2962 6.23781ZM18.1785 10.8016C17.5985 10.5889 17.1221 10.1622 16.8472 9.60906C17.0135 9.2893 17.0734 8.9248 17.0181 8.56865C16.9628 8.21249 16.7952 7.88331 16.5397 7.62906C16.3825 7.47121 16.1957 7.34595 15.9899 7.26049C15.7842 7.17502 15.5636 7.13103 15.3408 7.13103C15.1181 7.13103 14.8975 7.17502 14.6917 7.26049C14.486 7.34595 14.2992 7.47121 14.142 7.62906C13.8873 7.88254 13.7199 8.21051 13.6641 8.56546C13.6083 8.92042 13.6669 9.28393 13.8315 9.60334C13.9961 9.92274 14.2581 10.1815 14.5796 10.342C14.901 10.5026 15.2652 10.5566 15.6195 10.4963C16.09 11.3125 16.8407 11.9303 17.7322 12.2348L17.4427 12.9878C17.3712 13.177 17.2603 13.3488 17.1172 13.4918L8.79221 21.8168L8.78771 21.8213C8.75858 21.8505 8.72392 21.8735 8.68576 21.8891C8.64761 21.9046 8.60673 21.9125 8.56552 21.912C8.52431 21.9116 8.4836 21.903 8.44577 21.8866C8.40794 21.8703 8.37375 21.8465 8.34521 21.8168L2.34522 15.8168L2.34072 15.8123C2.31157 15.7832 2.28854 15.7485 2.27296 15.7104C2.25738 15.6722 2.24957 15.6313 2.24999 15.5901C2.25041 15.5489 2.25905 15.5082 2.2754 15.4704C2.29175 15.4325 2.31549 15.3983 2.34522 15.3698L10.6702 7.04481C10.8075 6.90756 10.98 6.79731 11.1772 6.71856L14.9347 5.27406L14.9362 5.27331C14.994 5.25 15.0573 5.24412 15.1183 5.25638C15.1793 5.26864 15.2355 5.29851 15.2797 5.34231L18.8197 8.88231C18.8628 8.9264 18.8923 8.9819 18.9048 9.04224C18.9173 9.10259 18.9122 9.16525 18.8902 9.22281L18.2707 10.8331C18.2398 10.8232 18.209 10.8127 18.1785 10.8016ZM15.15 7.90131C15.0472 8.52639 15.0969 9.16703 15.2947 9.76881C15.1121 9.76038 14.9359 9.699 14.7875 9.59214C14.6392 9.48529 14.5252 9.33758 14.4593 9.16704C14.3935 8.99649 14.3787 8.81048 14.4168 8.63167C14.4549 8.45287 14.5441 8.289 14.6737 8.16006C14.8038 8.02916 14.9694 7.93921 15.15 7.90131Z" fill="black"/>
</g>
</g>
</svg>
