<svg width="31" height="30" viewBox="0 0 31 30" fill="none" xmlns="http://www.w3.org/2000/svg">
<g id="skill-icons:instagram" clip-path="url(#clip0_214_1830)">
<g id="Group">
<path id="Vector" d="M23.7344 0H7.26562C3.25293 0 0 3.148 0 7.03125V22.9688C0 26.852 3.25293 30 7.26562 30H23.7344C27.7471 30 31 26.852 31 22.9688V7.03125C31 3.148 27.7471 0 23.7344 0Z" fill="url(#paint0_radial_214_1830)"/>
<path id="Vector_2" d="M23.7344 0H7.26562C3.25293 0 0 3.148 0 7.03125V22.9688C0 26.852 3.25293 30 7.26562 30H23.7344C27.7471 30 31 26.852 31 22.9688V7.03125C31 3.148 27.7471 0 23.7344 0Z" fill="url(#paint1_radial_214_1830)"/>
<path id="Vector_3" d="M15.5011 3.28125C12.2124 3.28125 11.7996 3.2952 10.508 3.35203C9.21887 3.40922 8.33888 3.60668 7.56896 3.89648C6.77241 4.19578 6.09683 4.59621 5.42379 5.24777C4.75014 5.89922 4.33637 6.55301 4.02613 7.32351C3.72581 8.06883 3.52153 8.92078 3.46352 10.1678C3.40576 11.4178 3.39062 11.8174 3.39062 15.0001C3.39062 18.1828 3.40516 18.581 3.46377 19.8309C3.5231 21.0785 3.72714 21.9301 4.02637 22.6752C4.33588 23.446 4.74966 24.0998 5.42294 24.7512C6.09586 25.4031 6.77144 25.8044 7.56739 26.1037C8.33791 26.3935 9.21802 26.591 10.5069 26.6482C11.7986 26.705 12.2111 26.719 15.4996 26.719C18.7887 26.719 19.2001 26.705 20.4917 26.6482C21.7809 26.591 22.6618 26.3935 23.4324 26.1037C24.2286 25.8044 24.9032 25.4031 25.576 24.7512C26.2496 24.0998 26.6633 23.446 26.9736 22.6755C27.2713 21.9301 27.4757 21.0783 27.5362 19.8312C27.5942 18.5812 27.6094 18.1828 27.6094 15.0001C27.6094 11.8174 27.5942 11.418 27.5362 10.168C27.4757 8.92043 27.2713 8.06894 26.9736 7.32387C26.6633 6.55301 26.2496 5.89922 25.576 5.24777C24.9024 4.59598 24.2288 4.19555 23.4316 3.8966C22.6597 3.60668 21.7792 3.4091 20.49 3.35203C19.1983 3.2952 18.7871 3.28125 15.4973 3.28125H15.5011ZM14.4148 5.39309C14.7372 5.39262 15.097 5.39309 15.5011 5.39309C18.7344 5.39309 19.1176 5.40434 20.3944 5.46047C21.575 5.51273 22.2159 5.70363 22.6427 5.86406C23.2079 6.07641 23.6107 6.33035 24.0343 6.74062C24.4582 7.15078 24.7204 7.54137 24.9405 8.08828C25.1062 8.50078 25.3038 9.12094 25.3575 10.2635C25.4155 11.4989 25.4281 11.8699 25.4281 14.9974C25.4281 18.1249 25.4155 18.496 25.3575 19.7313C25.3035 20.8739 25.1062 21.4941 24.9405 21.9067C24.721 22.4536 24.4582 22.843 24.0343 23.2529C23.6105 23.6631 23.2081 23.9169 22.6427 24.1294C22.2163 24.2905 21.575 24.4809 20.3944 24.5332C19.1178 24.5893 18.7344 24.6015 15.5011 24.6015C12.2676 24.6015 11.8844 24.5893 10.6079 24.5332C9.42727 24.4805 8.78644 24.2896 8.35922 24.1291C7.7942 23.9167 7.39047 23.6628 6.96664 23.2527C6.54282 22.8425 6.28053 22.4529 6.0605 21.9057C5.89472 21.4931 5.69722 20.873 5.64345 19.7304C5.58545 18.495 5.57382 18.124 5.57382 14.9945C5.57382 11.8651 5.58545 11.496 5.64345 10.2606C5.69746 9.11801 5.89472 8.49785 6.0605 8.08476C6.28004 7.53785 6.54282 7.14726 6.96677 6.73711C7.39059 6.32695 7.7942 6.07301 8.35934 5.86019C8.7862 5.69906 9.42727 5.50863 10.6079 5.45613C11.725 5.40726 12.1579 5.39262 14.4148 5.39016V5.39309ZM21.9651 7.33887C21.1628 7.33887 20.5119 7.96816 20.5119 8.74465C20.5119 9.52101 21.1628 10.1509 21.9651 10.1509C22.7673 10.1509 23.4182 9.52101 23.4182 8.74465C23.4182 7.96828 22.7673 7.3384 21.9651 7.3384V7.33887ZM15.5011 8.98195C12.0669 8.98195 9.28244 11.6766 9.28244 15.0001C9.28244 18.3237 12.0669 21.017 15.5011 21.017C18.9354 21.017 21.7189 18.3237 21.7189 15.0001C21.7189 11.6767 18.9352 8.98195 15.5008 8.98195H15.5011ZM15.5011 11.0938C17.7303 11.0938 19.5376 12.8426 19.5376 15.0001C19.5376 17.1574 17.7303 18.9064 15.5011 18.9064C13.2718 18.9064 11.4647 17.1574 11.4647 15.0001C11.4647 12.8426 13.2718 11.0938 15.5011 11.0938Z" fill="white"/>
</g>
</g>
<defs>
<radialGradient id="paint0_radial_214_1830" cx="0" cy="0" r="1" gradientUnits="userSpaceOnUse" gradientTransform="translate(8.23437 32.3106) rotate(-90) scale(29.7322 28.5751)">
<stop stop-color="#FFDD55"/>
<stop offset="0.1" stop-color="#FFDD55"/>
<stop offset="0.5" stop-color="#FF543E"/>
<stop offset="1" stop-color="#C837AB"/>
</radialGradient>
<radialGradient id="paint1_radial_214_1830" cx="0" cy="0" r="1" gradientUnits="userSpaceOnUse" gradientTransform="translate(-5.19262 2.16105) rotate(78.3139) scale(13.3078 56.5361)">
<stop stop-color="#3771C8"/>
<stop offset="0.128" stop-color="#3771C8"/>
<stop offset="1" stop-color="#6600FF" stop-opacity="0"/>
</radialGradient>
<clipPath id="clip0_214_1830">
<rect width="31" height="30" fill="white"/>
</clipPath>
</defs>
</svg>
