<svg width="39" height="29" viewBox="0 0 39 29" fill="none" xmlns="http://www.w3.org/2000/svg">
<g id="devicon:linkedin" clip-path="url(#clip0_214_1813)">
<path id="Vector" d="M35.3311 -1.24353H4.45605C3.75552 -1.24983 3.08077 -1.01016 2.57986 -0.577089C2.07895 -0.14402 1.79279 0.447065 1.78418 1.06647V28.4767C1.79435 29.0952 2.08119 29.6849 2.58193 30.1169C3.08267 30.5488 3.75654 30.7878 4.45605 30.7815H35.3311C36.0316 30.7864 36.7059 30.5459 37.2066 30.1125C37.7072 29.6792 37.9935 29.0883 38.0029 28.4688V1.05859C37.9904 0.441006 37.7028 -0.147261 37.2024 -0.578341C36.7021 -1.00942 36.0296 -1.24847 35.3311 -1.24353Z" fill="#0076B2"/>
<path id="Vector_2" d="M7.14576 10.7607H12.5222V26.0566H7.14576V10.7607ZM9.83545 3.14819C10.4521 3.14819 11.0549 3.30991 11.5676 3.61289C12.0803 3.91586 12.4798 4.34649 12.7156 4.85028C12.9515 5.35407 13.013 5.90839 12.8925 6.44313C12.772 6.97786 12.4748 7.46897 12.0386 7.85433C11.6023 8.2397 11.0466 8.502 10.4418 8.60805C9.83689 8.71411 9.21004 8.65915 8.6405 8.45013C8.07096 8.24111 7.58432 7.88743 7.24216 7.43382C6.9 6.98021 6.71768 6.44706 6.71826 5.90182C6.71905 5.17127 7.04781 4.47088 7.63231 3.95455C8.21682 3.43822 9.00924 3.14819 9.83545 3.14819ZM15.8947 10.7607H21.0484V12.8607H21.1197C21.8381 11.6584 23.5897 10.3906 26.2051 10.3906C31.6498 10.3801 32.6592 13.5484 32.6592 17.6566V26.0566H27.2828V18.6147C27.2828 16.8428 27.2472 14.5617 24.4892 14.5617C21.7312 14.5617 21.2622 16.4937 21.2622 18.4992V26.0566H15.8947V10.7607Z" fill="white"/>
</g>
<defs>
<clipPath id="clip0_214_1813">
<rect width="38" height="33.6" fill="white" transform="translate(0.893555 -2.03101)"/>
</clipPath>
</defs>
</svg>
