<svg width="24" height="24" viewBox="0 0 24 24" fill="none" xmlns="http://www.w3.org/2000/svg">
<g id="lucide:files">
<g id="Group">
<path id="Vector" d="M15.5 2H8.6C8.2 2 7.8 2.2 7.5 2.5C7.2 2.8 7 3.2 7 3.6V16.4C7 16.8 7.2 17.2 7.5 17.5C7.8 17.8 8.2 18 8.6 18H18.4C18.8 18 19.2 17.8 19.5 17.5C19.8 17.2 20 16.8 20 16.4V6.5L15.5 2Z" stroke="#1B1D29" stroke-width="2" stroke-linecap="round" stroke-linejoin="round"/>
<path id="Vector_2" d="M3 7.6V20.4C3 20.8 3.2 21.2 3.5 21.5C3.8 21.8 4.2 22 4.6 22H14.4M15 2V7H20" stroke="#1B1D29" stroke-width="2" stroke-linecap="round" stroke-linejoin="round"/>
</g>
</g>
</svg>
