<svg width="24" height="24" viewBox="0 0 24 24" fill="none" xmlns="http://www.w3.org/2000/svg">
<g id="material-symbols:full-coverage-outline">
<path id="Vector" d="M4 21C3.45 21 2.979 20.804 2.587 20.412C2.195 20.02 1.99934 19.5493 2 19V7H4V19H19V21H4ZM8 17C7.45 17 6.979 16.804 6.587 16.412C6.195 16.02 5.99934 15.5493 6 15V3H23V15C23 15.55 22.804 16.021 22.412 16.413C22.02 16.805 21.5493 17.0007 21 17H8ZM8 15H21V5H8V15ZM10 12H14V7H10V12ZM15 12H19V10H15V12ZM15 9H19V7H15V9Z" fill="black"/>
</g>
</svg>
