<svg width="43" height="42" viewBox="0 0 43 42" fill="none" xmlns="http://www.w3.org/2000/svg">
<g id="ph:meta-logo-bold">
<path id="Vector" d="M40.7344 24.4962C40.7344 27.259 40.1815 29.6362 39.1348 31.372C37.7911 33.6016 35.7026 34.7812 33.0956 34.7812C28.1196 34.7812 24.7744 28.5387 21.2339 21.9302C18.6614 17.1298 15.4688 11.1562 12.8438 11.1562C11.5788 11.1562 10.0284 12.6935 8.79797 15.1676C7.3905 18.078 6.64318 21.2634 6.60938 24.4962C6.60938 26.5141 6.97687 28.2335 7.64297 29.3393C8.26148 30.3663 9.10969 30.8438 10.3106 30.8438C12.5665 30.8438 15.3359 26.0859 16.2464 24.529C16.5094 24.0778 16.9409 23.7495 17.446 23.6164C17.951 23.4834 18.4883 23.5564 18.9395 23.8194C19.3907 24.0824 19.719 24.5139 19.852 25.019C19.9851 25.5241 19.9121 26.0613 19.6491 26.5125C18.1873 29.0194 16.9371 30.7781 15.7116 32.0545C13.9512 33.8888 12.1875 34.7812 10.3106 34.7812C7.70367 34.7812 5.61516 33.6016 4.27148 31.372C3.22477 29.6362 2.67188 27.259 2.67188 24.4962C2.67188 17.2823 6.54047 7.21875 12.8438 7.21875C17.8198 7.21875 21.165 13.4613 24.7055 20.0698C27.2812 24.8702 30.4755 30.8438 33.0956 30.8438C34.2966 30.8438 35.1448 30.3663 35.7633 29.3393C36.4294 28.2335 36.7969 26.5141 36.7969 24.4962C36.7636 21.2636 36.0168 18.0782 34.6099 15.1676C33.3795 12.6935 31.8291 11.1562 30.5625 11.1562C29.6241 11.1562 28.4937 11.9766 27.2009 13.5893C26.8745 13.997 26.3996 14.2584 25.8805 14.3159C25.3615 14.3734 24.8408 14.2224 24.4331 13.8961C24.0254 13.5698 23.764 13.0948 23.7065 12.5758C23.649 12.0567 23.8 11.5361 24.1263 11.1284C26.2345 8.49844 28.3395 7.21875 30.5625 7.21875C33.4582 7.21875 36.1406 9.41883 38.134 13.4138C39.8061 16.8714 40.694 20.6556 40.7344 24.4962Z" fill="black"/>
</g>
</svg>
