<svg width="16" height="17" viewBox="0 0 16 17" fill="none" xmlns="http://www.w3.org/2000/svg">
<g id="vaadin:records" clip-path="url(#clip0_924_1291)">
<path id="Vector" d="M4 9.5H8V11.5H4V9.5Z" fill="black"/>
<path id="Vector_2" d="M16 2.5H15V0.5H5V2.5H3V3.75L2.4 4.5H1V6.25L0 7.5V16.5H12L16 11.5V2.5ZM2 5.5H10V7.5H2V5.5ZM11 15.5H1V8.5H11V15.5ZM12 7.5H11V4.5H4V3.5H12V7.5ZM14 5L13 6.25V2.5H6V1.5H14V5Z" fill="black"/>
</g>
<defs>
<clipPath id="clip0_924_1291">
<rect width="16" height="16" fill="white" transform="translate(0 0.5)"/>
</clipPath>
</defs>
</svg>
