<svg width="32" height="33" viewBox="0 0 32 33" fill="none" xmlns="http://www.w3.org/2000/svg">
<g id="devicon:twitter">
<path id="Vector" d="M28.724 10.453C28.7435 10.7352 28.7435 11.0172 28.7435 11.302C28.7435 19.977 22.1393 29.982 10.0635 29.982V29.977C6.49602 29.982 3.00248 28.9602 0 27.0335C0.51875 27.096 1.04 27.1272 1.5625 27.1285C4.51928 27.1309 7.39101 26.1392 9.71625 24.3127C8.34624 24.2869 7.01857 23.8335 5.91886 23.016C4.81915 22.1986 4.00238 21.0579 3.58275 19.7535C4.567 19.9435 5.581 19.9042 6.547 19.6402C3.484 19.0215 1.2805 16.3305 1.2805 13.2052V13.122C2.19358 13.6307 3.21551 13.9125 4.26025 13.9437C1.375 12.0157 0.48625 8.17799 2.22825 5.17774C3.87647 7.20591 5.9329 8.86468 8.26396 10.0463C10.595 11.228 13.1486 11.906 15.7587 12.0365C15.4986 10.9162 15.5371 9.7472 15.8704 8.64645C16.2038 7.54569 16.8203 6.55174 17.6583 5.76399C20.3025 3.27824 24.4613 3.40574 26.9468 6.04874C28.4171 5.75843 29.827 5.21936 31.116 4.45474C30.6259 5.97492 29.6003 7.26533 28.23 8.08599C29.5314 7.93255 30.8023 7.58406 32 7.05224C31.119 8.37165 30.0096 9.52328 28.724 10.453Z" fill="#1D9BF0"/>
</g>
</svg>
