<svg width="43" height="35" viewBox="0 0 43 35" fill="none" xmlns="http://www.w3.org/2000/svg">
<g id="logos:youtube-icon" clip-path="url(#clip0_88_324)">
<path id="Vector" d="M41.7755 5.45903C41.5346 4.40388 41.0647 3.44195 40.4126 2.669C39.7604 1.89605 38.9488 1.33906 38.0585 1.0535C34.7993 0 21.6818 0 21.6818 0C21.6818 0 8.56372 0.0318888 5.30445 1.08539C4.41417 1.37097 3.60254 1.92799 2.95039 2.70097C2.29824 3.47395 1.82833 4.43593 1.58745 5.49111C0.601602 12.3546 0.219172 22.813 1.61452 29.4019C1.85543 30.4571 2.32535 31.419 2.9775 32.192C3.62964 32.9649 4.44126 33.5219 5.33152 33.8075C8.59079 34.861 21.7086 34.861 21.7086 34.861C21.7086 34.861 34.8262 34.861 38.0853 33.8075C38.9756 33.5219 39.7872 32.965 40.4394 32.192C41.0916 31.4191 41.5615 30.4571 41.8025 29.4019C42.8423 22.5287 43.1627 12.0767 41.7755 5.45903Z" fill="#FF0000"/>
<path id="Vector_2" d="M17.5063 24.9005L28.3883 17.4304L17.5063 9.96021V24.9005Z" fill="white"/>
</g>
<defs>
<clipPath id="clip0_88_324">
<rect width="42" height="35" fill="white" transform="translate(0.703125)"/>
</clipPath>
</defs>
</svg>
