<svg width="43" height="35" viewBox="0 0 43 35" fill="none" xmlns="http://www.w3.org/2000/svg">
<g id="devicon:linkedin">
<path id="Vector" d="M38.7656 -2.5156H4.64062C3.86635 -2.52348 3.12058 -2.22388 2.56694 -1.68254C2.0133 -1.14121 1.69702 -0.40235 1.6875 0.371904V34.6347C1.69874 35.4078 2.01578 36.145 2.56923 36.6849C3.12268 37.2248 3.86747 37.5235 4.64062 37.5157H38.7656C39.5399 37.5218 40.2852 37.2212 40.8386 36.6795C41.3919 36.1378 41.7084 35.3992 41.7188 34.6249V0.362061C41.7049 -0.409923 41.387 -1.14526 40.834 -1.68411C40.281 -2.22296 39.5377 -2.52177 38.7656 -2.5156Z" fill="#0076B2"/>
<path id="Vector_2" d="M7.61361 12.4895H13.556V31.6093H7.61361V12.4895ZM10.5864 2.97388C11.268 2.97388 11.9342 3.17602 12.5009 3.55475C13.0675 3.93347 13.5091 4.47174 13.7698 5.10148C14.0305 5.73122 14.0985 6.42413 13.9653 7.09254C13.8321 7.76096 13.5036 8.37485 13.0215 8.85655C12.5393 9.33826 11.9251 9.66613 11.2566 9.7987C10.588 9.93127 9.89518 9.86257 9.26569 9.6013C8.6362 9.34003 8.09834 8.89792 7.72016 8.33091C7.34198 7.7639 7.14047 7.09747 7.14111 6.41591C7.14198 5.50272 7.50536 4.62724 8.15138 3.98183C8.79741 3.33641 9.67324 2.97388 10.5864 2.97388ZM17.2835 12.4895H22.9797V15.1145H23.0585C23.8525 13.6117 25.7885 12.0268 28.6792 12.0268C34.6971 12.0137 35.8127 15.9742 35.8127 21.1093V31.6093H29.8703V22.307C29.8703 20.0922 29.831 17.2408 26.7827 17.2408C23.7344 17.2408 23.216 19.6558 23.216 22.1626V31.6093H17.2835V12.4895Z" fill="white"/>
</g>
</svg>
