<svg width="21" height="20" viewBox="0 0 21 20" fill="none" xmlns="http://www.w3.org/2000/svg">
<g id="teenyicons:edit-1-solid" clip-path="url(#clip0_112_645)">
<path id="Vector" d="M13.8418 0.195004C13.7799 0.13292 13.7063 0.0836624 13.6253 0.0500538C13.5443 0.0164452 13.4575 -0.000854492 13.3698 -0.000854492C13.2821 -0.000854492 13.1953 0.0164452 13.1143 0.0500538C13.0333 0.0836624 12.9597 0.13292 12.8978 0.195004L9.36979 3.72434L16.9791 11.3337L20.5085 7.80567C20.5705 7.74374 20.6198 7.67018 20.6534 7.58918C20.687 7.50819 20.7043 7.42136 20.7043 7.33367C20.7043 7.24598 20.687 7.15915 20.6534 7.07816C20.6198 6.99716 20.5705 6.9236 20.5085 6.86167L13.8418 0.195004ZM0.703125 12.391L8.42713 4.667L16.0365 12.2763L8.31246 20.0003H1.36979C1.19298 20.0003 1.02341 19.9301 0.898387 19.8051C0.773363 19.68 0.703125 19.5105 0.703125 19.3337V12.391ZM11.3698 20.0003H20.7031V18.667H11.3698V20.0003Z" fill="#0400BE"/>
</g>
<defs>
<clipPath id="clip0_112_645">
<rect width="20" height="20" fill="white" transform="translate(0.703125)"/>
</clipPath>
</defs>
</svg>
