<svg width="116" height="100" viewBox="0 0 116 100" fill="none" xmlns="http://www.w3.org/2000/svg">
<g id="ph:image-duotone">
<g id="Group">
<path id="Vector" opacity="0.2" d="M101.5 22.0033V69.465L83.5019 54.0203C82.8221 53.4374 81.9005 53.1099 80.9395 53.1099C79.9785 53.1099 79.0568 53.4374 78.377 54.0203L66.7498 63.9979L44.2522 44.6882C43.9155 44.399 43.5157 44.1695 43.0757 44.013C42.6356 43.8564 42.1639 43.7759 41.6875 43.7759C41.2111 43.7759 40.7394 43.8564 40.2993 44.013C39.8593 44.1695 39.4595 44.399 39.1228 44.6882L14.5 65.8216V22.0033C14.5 21.1783 14.8819 20.3871 15.5617 19.8037C16.2416 19.2203 17.1636 18.8926 18.125 18.8926H97.875C98.8364 18.8926 99.7584 19.2203 100.438 19.8037C101.118 20.3871 101.5 21.1783 101.5 22.0033Z" fill="#BFBEBE"/>
<path id="Vector_2" d="M97.875 15.7812H18.125C16.2022 15.7813 14.3581 16.4367 12.9985 17.6035C11.6388 18.7702 10.875 20.3527 10.875 22.0027V77.9955C10.875 79.6456 11.6388 81.228 12.9985 82.3947C14.3581 83.5615 16.2022 84.217 18.125 84.217H97.875C99.7978 84.217 101.642 83.5615 103.002 82.3947C104.361 81.228 105.125 79.6456 105.125 77.9955V22.0027C105.125 20.3527 104.361 18.7702 103.002 17.6035C101.642 16.4367 99.7978 15.7813 97.875 15.7812ZM97.875 22.0027V61.9559L86.062 51.8228C85.3888 51.2449 84.5895 50.7865 83.7098 50.4738C82.83 50.161 81.8871 50 80.9349 50C79.9827 50 79.0398 50.161 78.1601 50.4738C77.2804 50.7865 76.4811 51.2449 75.8078 51.8228L66.7453 59.5995L46.8078 42.4906C45.4483 41.3248 43.605 40.6698 41.683 40.6698C39.761 40.6698 37.9176 41.3248 36.5581 42.4906L18.125 58.3086V22.0027H97.875ZM18.125 67.108L41.6875 46.8884L77.9375 77.9955H18.125V67.108ZM97.875 77.9955H88.1917L71.8792 63.9973L80.9417 56.2205L97.875 70.7553V77.9955ZM65.25 39.1116C65.25 38.1887 65.5689 37.2866 66.1664 36.5193C66.7639 35.7519 67.6131 35.1539 68.6067 34.8007C69.6002 34.4476 70.6935 34.3552 71.7483 34.5352C72.8031 34.7152 73.7719 35.1596 74.5324 35.8122C75.2928 36.4648 75.8107 37.2962 76.0205 38.2013C76.2303 39.1064 76.1226 40.0446 75.7111 40.8972C75.2995 41.7498 74.6026 42.4786 73.7084 42.9913C72.8142 43.504 71.7629 43.7777 70.6875 43.7777C69.2454 43.7777 67.8623 43.2861 66.8426 42.411C65.8229 41.536 65.25 40.3491 65.25 39.1116Z" fill="#BFBEBE"/>
</g>
</g>
</svg>
