<svg width="20" height="20" viewBox="0 0 20 20" fill="none" xmlns="http://www.w3.org/2000/svg">
<g id="teenyicons:edit-1-solid" clip-path="url(#clip0_394_1939)">
<path id="Vector" d="M13.1387 0.194943C13.0767 0.132859 13.0032 0.0836014 12.9222 0.0499928C12.8412 0.0163842 12.7544 -0.000915527 12.6667 -0.000915527C12.579 -0.000915527 12.4922 0.0163842 12.4112 0.0499928C12.3302 0.0836014 12.2566 0.132859 12.1947 0.194943L8.66667 3.72428L16.276 11.3336L19.8053 7.80561C19.8674 7.74368 19.9167 7.67011 19.9503 7.58912C19.9839 7.50813 20.0012 7.4213 20.0012 7.33361C20.0012 7.24592 19.9839 7.15909 19.9503 7.0781C19.9167 6.9971 19.8674 6.92354 19.8053 6.86161L13.1387 0.194943ZM0 12.3909L7.724 4.66694L15.3333 12.2763L7.60933 20.0003H0.666667C0.489856 20.0003 0.320286 19.93 0.195262 19.805C0.0702379 19.68 0 19.5104 0 19.3336V12.3909ZM10.6667 20.0003H20V18.6669H10.6667V20.0003Z" fill="#0400BE"/>
</g>
<defs>
<clipPath id="clip0_394_1939">
<rect width="20" height="20" fill="white"/>
</clipPath>
</defs>
</svg>
