<svg width="43" height="42" viewBox="0 0 43 42" fill="none" xmlns="http://www.w3.org/2000/svg">
<g id="devicon:twitter" clip-path="url(#clip0_112_584)">
<path id="Vector" d="M38.4034 12.432C38.429 12.8024 38.429 13.1726 38.429 13.5463C38.429 24.9322 29.7609 38.0638 13.9115 38.0638V38.0572C9.22916 38.0638 4.64388 36.7226 0.703125 34.1939C1.38398 34.2759 2.06813 34.3169 2.75391 34.3186C6.63468 34.3217 10.4038 33.0201 13.4557 30.6229C11.6576 30.5889 9.91499 29.9939 8.47162 28.921C7.02825 27.8481 5.95625 26.3509 5.40548 24.6389C6.69731 24.8883 8.02819 24.8368 9.29606 24.4903C5.27588 23.6781 2.38378 20.1462 2.38378 16.0443V15.935C3.58219 16.6027 4.92348 16.9726 6.2947 17.0136C2.50781 14.4831 1.34133 9.44605 3.6277 5.50822C5.791 8.17019 8.49006 10.3473 11.5496 11.8982C14.6091 13.4491 17.9606 14.3391 21.3865 14.5103C21.045 13.0399 21.0955 11.5056 21.5331 10.0609C21.9706 8.61615 22.7797 7.31159 23.8796 6.27767C27.3502 3.01513 32.8085 3.18247 36.0707 6.65141C38.0005 6.27037 39.8511 5.56284 41.5429 4.55928C40.8996 6.55451 39.5535 8.24818 37.755 9.3253C39.4631 9.1239 41.1312 8.66651 42.7031 7.9685C41.5468 9.70022 40.0907 11.2117 38.4034 12.432Z" fill="#1D9BF0"/>
</g>
<defs>
<clipPath id="clip0_112_584">
<rect width="42" height="42" fill="white" transform="translate(0.703125)"/>
</clipPath>
</defs>
</svg>
