<svg width="39" height="24" viewBox="0 0 39 24" fill="none" xmlns="http://www.w3.org/2000/svg">
<g id="logos:youtube-icon" clip-path="url(#clip0_214_1840)">
<path id="Vector" d="M38.1266 3.72042C37.9086 3.02704 37.4834 2.39491 36.8934 1.88697C36.3034 1.37903 35.5691 1.01301 34.7636 0.825357C31.8147 0.133057 19.9465 0.133057 19.9465 0.133057C19.9465 0.133057 8.07779 0.154012 5.12893 0.846312C4.32343 1.03398 3.5891 1.40002 2.99906 1.90798C2.40902 2.41594 1.98387 3.0481 1.76593 3.7415C0.873966 8.2518 0.527958 15.1245 1.79042 19.4543C2.00838 20.1477 2.43355 20.7798 3.02359 21.2878C3.61362 21.7957 4.34794 22.1617 5.15342 22.3494C8.10228 23.0417 19.9707 23.0417 19.9707 23.0417C19.9707 23.0417 31.8391 23.0417 34.7878 22.3494C35.5933 22.1618 36.3276 21.7957 36.9177 21.2878C37.5078 20.7799 37.9329 20.1477 38.1509 19.4543C39.0917 14.9376 39.3816 8.06921 38.1266 3.72042Z" fill="#FF0000"/>
<path id="Vector_2" d="M16.1689 16.4964L26.0145 11.5874L16.1689 6.67847V16.4964Z" fill="white"/>
</g>
<defs>
<clipPath id="clip0_214_1840">
<rect width="38" height="23" fill="white" transform="translate(0.96582 0.133057)"/>
</clipPath>
</defs>
</svg>
