<svg width="234" height="149" viewBox="0 0 234 149" fill="none" xmlns="http://www.w3.org/2000/svg">
<g id="logos:youtube-icon" clip-path="url(#clip0_88_399)">
<path id="Vector" d="M228.057 23.2399C226.721 18.748 224.114 14.6529 220.496 11.3623C216.878 8.07176 212.376 5.70058 207.437 4.4849C189.356 0 116.585 0 116.585 0C116.585 0 43.8107 0.135755 25.7295 4.62065C20.7906 5.83641 16.288 8.20771 12.6701 11.4984C9.05224 14.7891 6.44535 18.8844 5.10904 23.3764C-0.360087 52.5953 -2.48166 97.1182 5.25922 125.168C6.59567 129.66 9.20262 133.755 12.8205 137.046C16.4383 140.336 20.9409 142.708 25.8797 143.923C43.9609 148.408 116.733 148.408 116.733 148.408C116.733 148.408 189.505 148.408 207.585 143.923C212.524 142.708 217.027 140.337 220.645 137.046C224.263 133.755 226.87 129.66 228.207 125.168C233.975 95.908 235.753 51.4124 228.057 23.2399Z" fill="#FF0000"/>
<path id="Vector_2" d="M93.4224 106.005L153.791 74.2037L93.4224 42.4021V106.005Z" fill="white"/>
</g>
<defs>
<clipPath id="clip0_88_399">
<rect width="233" height="149" fill="white" transform="translate(0.203125)"/>
</clipPath>
</defs>
</svg>
